<?xml version="1.0" encoding="utf-8"?>
<!-- Generator: Adobe Illustrator 21.1.0, SVG Export Plug-In . SVG Version: 6.00 Build 0)  -->
<svg version="1.1" id="Layer_1" xmlns="http://www.w3.org/2000/svg" xmlns:xlink="http://www.w3.org/1999/xlink" x="0px" y="0px"
	 viewBox="0 0 17.5 25" style="enable-background:new 0 0 17.5 25;" xml:space="preserve">
<style type="text/css">
	.st0{fill:#F7741E;}
</style>
<title>Asset 1</title>
<g id="Layer_2">
	<g id="Layer_1-2">
		<path class="st0" d="M2.5,2.5C4.2,0.9,6.4,0,8.7,0c2.3,0,4.6,0.9,6.2,2.5c1.7,1.6,2.6,3.9,2.5,6.2c0,1.4-0.4,2.8-0.9,4.2
			c-0.6,1.5-1.3,3-2.2,4.4c-0.9,1.3-1.7,2.6-2.6,3.8c-0.8,1.2-1.6,2.1-2.1,2.9l-0.9,1l-0.9-1.1c-0.4-0.5-1.1-1.4-2.1-2.7
			c-1-1.3-1.9-2.6-2.7-4c-0.8-1.4-1.5-2.8-2.1-4.3C0.4,11.6,0,10.2,0,8.7C0,6.4,0.9,4.2,2.5,2.5z M6.6,10.9c1.2,1.2,3.2,1.2,4.4,0
			c0,0,0,0,0,0c1.2-1.2,1.2-3.2,0-4.4c0,0,0,0,0,0c-1.2-1.2-3.2-1.2-4.4,0c0,0,0,0,0,0C5.3,7.7,5.3,9.7,6.6,10.9
			C6.5,10.9,6.5,10.9,6.6,10.9z"/>
	</g>
</g>
</svg>
