<?xml version="1.0" encoding="utf-8"?>
<!-- Generator: Adobe Illustrator 19.1.0, SVG Export Plug-In . SVG Version: 6.00 Build 0)  -->
<svg version="1.1" id="Layer_1" xmlns="http://www.w3.org/2000/svg" xmlns:xlink="http://www.w3.org/1999/xlink" x="0px" y="0px"
	 viewBox="0 0 1719.2 345.2" enable-background="new 0 0 1719.2 345.2" xml:space="preserve">
<linearGradient id="SVGID_1_" gradientUnits="userSpaceOnUse" x1="160.2932" y1="109.2763" x2="292.7748" y2="109.2763" gradientTransform="matrix(0.9545 -0.298 0.298 0.9545 23.3799 237.7898)">
	<stop  offset="0" style="stop-color:#E9E9EA"/>
	<stop  offset="1" style="stop-color:#999B9E"/>
</linearGradient>
<polygon fill="url(#SVGID_1_)" points="283.3,269.7 287.9,258.7 349.2,258.6 323.2,269.6 "/>
<linearGradient id="SVGID_2_" gradientUnits="userSpaceOnUse" x1="8.7255" y1="-94.4074" x2="-35.9494" y2="-104.5243" gradientTransform="matrix(0.9545 -0.298 0.298 0.9545 23.3799 237.7898)">
	<stop  offset="0" style="stop-color:#E9E9EA"/>
	<stop  offset="1" style="stop-color:#999B9E"/>
</linearGradient>
<path fill="url(#SVGID_2_)" d="M11.6,86.1c-16.1,35.4-14.8,76.1,0,116.7c14.6-18.4,43.4-60,43.4-60L11.6,86.1z"/>
<linearGradient id="SVGID_3_" gradientUnits="userSpaceOnUse" x1="254.7973" y1="-86.0444" x2="274.7527" y2="-109.8263" gradientTransform="matrix(0.9545 -0.298 0.298 0.9545 23.3799 237.7898)">
	<stop  offset="0" style="stop-color:#EDEDEE"/>
	<stop  offset="1" style="stop-color:#ADAFB2"/>
</linearGradient>
<path fill="url(#SVGID_3_)" d="M301.6,84.4c-30.5-25.6-66.3-43.5-102.9-53.3L236.8,78L301.6,84.4z"/>
<linearGradient id="SVGID_4_" gradientUnits="userSpaceOnUse" x1="288.4682" y1="596.8895" x2="288.4682" y2="463.6159" gradientTransform="matrix(0.8857 0.4643 -0.4643 0.8857 108.7675 -538.7418)">
	<stop  offset="0" style="stop-color:#E9E9EA"/>
	<stop  offset="1" style="stop-color:#999B9E"/>
</linearGradient>
<polygon fill="url(#SVGID_4_)" points="210.5,92.7 226,86.2 166.6,15 57.1,0 5.2,53 42.7,100.6 "/>
<radialGradient id="SVGID_5_" cx="341.3438" cy="490.9856" r="75.9959" gradientTransform="matrix(1.3732 0.6801 -0.7424 1.3405 -0.8049 -754.6597)" gradientUnits="userSpaceOnUse">
	<stop  offset="0" style="stop-color:#2495C6"/>
	<stop  offset="2.944687e-02" style="stop-color:#2391C2"/>
	<stop  offset="0.2459" style="stop-color:#1C76AD"/>
	<stop  offset="0.4137" style="stop-color:#1866A1"/>
	<stop  offset="0.5112" style="stop-color:#16619D"/>
	<stop  offset="1" style="stop-color:#1C2371"/>
</radialGradient>
<polygon fill="url(#SVGID_5_)" points="213.9,91.7 159.3,29.8 60.8,12.9 13,63.4 71.7,138.5 181.7,148.5 "/>
<linearGradient id="SVGID_6_" gradientUnits="userSpaceOnUse" x1="2052.3801" y1="590.4428" x2="2052.3801" y2="460.2449" gradientTransform="matrix(-0.8857 -0.4643 -0.4643 0.8857 2379.5693 650.63)">
	<stop  offset="0" style="stop-color:#E9E9EA"/>
	<stop  offset="1" style="stop-color:#999B9E"/>
</linearGradient>
<polygon fill="url(#SVGID_6_)" points="240.9,107.7 237.7,92 333.4,97.7 408.8,174.2 392.4,244.7 329.6,242.7 "/>
<radialGradient id="SVGID_7_" cx="2104.6887" cy="491.729" r="75.9972" gradientTransform="matrix(-1.3732 -0.6801 -0.7424 1.3405 3519.7727 987.6893)" gradientUnits="userSpaceOnUse">
	<stop  offset="0" style="stop-color:#C7C7C7"/>
	<stop  offset="0.1461" style="stop-color:#B2B2B2"/>
	<stop  offset="0.3767" style="stop-color:#979797"/>
	<stop  offset="0.5112" style="stop-color:#8C8C8C"/>
	<stop  offset="1" style="stop-color:#595959"/>
</radialGradient>
<polygon fill="url(#SVGID_7_)" points="239.8,104.5 324.7,111.7 395.6,178.7 378.8,244.6 280.1,241.7 208.8,161.9 "/>
<linearGradient id="SVGID_8_" gradientUnits="userSpaceOnUse" x1="395.8419" y1="749.1127" x2="395.8419" y2="584.606" gradientTransform="matrix(0.8857 0.4643 -0.4643 0.8857 108.7675 -538.7418)">
	<stop  offset="0" style="stop-color:#E9E9EA"/>
	<stop  offset="1" style="stop-color:#999B9E"/>
</linearGradient>
<polygon fill="url(#SVGID_8_)" points="32.4,267 8.1,234 67,152.3 189.4,163.7 191.9,164.9 271.5,253.6 234.9,345.2 191.7,344.8 "/>
<radialGradient id="SVGID_9_" cx="401.7392" cy="559.9727" r="74.0688" gradientTransform="matrix(1.3732 0.6801 -0.7424 1.3405 -0.8049 -754.6597)" gradientUnits="userSpaceOnUse">
	<stop  offset="0" style="stop-color:#F47D20"/>
	<stop  offset="0.3047" style="stop-color:#E56D1F"/>
	<stop  offset="0.6074" style="stop-color:#DC641E"/>
	<stop  offset="1" style="stop-color:#B1411A"/>
</radialGradient>
<polygon fill="url(#SVGID_9_)" points="17.2,246.4 72.1,165.2 183.3,173.3 255.2,255.8 215.9,344.8 90.2,344.1 "/>
<linearGradient id="SVGID_10_" gradientUnits="userSpaceOnUse" x1="381.5615" y1="788.2738" x2="446.3964" y2="730.3855" gradientTransform="matrix(0.8857 0.4643 -0.4643 0.8857 108.7675 -538.7418)">
	<stop  offset="0" style="stop-color:#F26522"/>
	<stop  offset="7.625842e-02" style="stop-color:#F58142"/>
	<stop  offset="0.1664" style="stop-color:#F89B68"/>
	<stop  offset="0.2616" style="stop-color:#FAB48A"/>
	<stop  offset="0.3603" style="stop-color:#FCCAAA"/>
	<stop  offset="0.4634" style="stop-color:#FEDCC5"/>
	<stop  offset="0.5725" style="stop-color:#FEEADC"/>
	<stop  offset="0.69" style="stop-color:#FFF4ED"/>
	<stop  offset="0.8222" style="stop-color:#FFFCF9"/>
	<stop  offset="1" style="stop-color:#FFFFFF"/>
</linearGradient>
<path opacity="0.36" fill="url(#SVGID_10_)" d="M77.1,305.9l23.4,30.9l104.8,0.2l5.7-10.4C211.1,326.6,156.3,341,77.1,305.9z"/>
<linearGradient id="SVGID_11_" gradientUnits="userSpaceOnUse" x1="208.955" y1="-22.7827" x2="208.955" y2="-80.9117" gradientTransform="matrix(0.9545 -0.298 0.298 0.9545 37.9204 239.1125)">
	<stop  offset="1.123600e-02" style="stop-color:#B1B3B6"/>
	<stop  offset="1" style="stop-color:#FFFFFF"/>
</linearGradient>
<polygon fill="url(#SVGID_11_)" points="237.7,92 237.5,92.4 203.8,155.4 208.8,161.9 240.8,104.5 "/>
<linearGradient id="SVGID_12_" gradientUnits="userSpaceOnUse" x1="924.7808" y1="695.3903" x2="924.7808" y2="634.5456" gradientTransform="matrix(-0.298 -0.9545 -0.9545 0.298 1114.0391 803.132)">
	<stop  offset="1.123600e-02" style="stop-color:#B1B3B6"/>
	<stop  offset="1" style="stop-color:#FFFFFF"/>
</linearGradient>
<polygon fill="url(#SVGID_12_)" points="225.5,86.2 225.2,86.6 189.6,148.6 181.2,148.4 212.9,90.8 "/>
<linearGradient id="SVGID_13_" gradientUnits="userSpaceOnUse" x1="225.6729" y1="592.2964" x2="308.7581" y2="518.1132" gradientTransform="matrix(0.8857 0.4643 -0.4643 0.8857 108.7675 -538.7418)">
	<stop  offset="2.247190e-02" style="stop-color:#11558B"/>
	<stop  offset="0.2381" style="stop-color:#4C71A2"/>
	<stop  offset="0.6106" style="stop-color:#9DAECD"/>
	<stop  offset="0.8733" style="stop-color:#DDE1ED"/>
	<stop  offset="1" style="stop-color:#FFFFFF"/>
</linearGradient>
<path opacity="0.63" fill="url(#SVGID_13_)" d="M194.9,111.3l9.3-19.7l-48.4-56.4L63.5,22L30.6,57.5
	C30.6,57.5,95.9,62.3,194.9,111.3z"/>
<linearGradient id="SVGID_14_" gradientUnits="userSpaceOnUse" x1="1982.3221" y1="579.2007" x2="2074.4636" y2="514.6826" gradientTransform="matrix(-0.8857 -0.4643 -0.4643 0.8857 2379.5693 650.63)">
	<stop  offset="6.179780e-02" style="stop-color:#5E5E5E"/>
	<stop  offset="0.337" style="stop-color:#969696"/>
	<stop  offset="0.6463" style="stop-color:#CFCFCF"/>
	<stop  offset="0.8765" style="stop-color:#F2F2F2"/>
	<stop  offset="1" style="stop-color:#FFFFFF"/>
</linearGradient>
<path opacity="0.63" fill="url(#SVGID_14_)" d="M233.6,130.5l11.9-18.4l76.6,5.5l64.1,64.1L374,227.6
	C374,227.6,332.6,179.5,233.6,130.5z"/>
<linearGradient id="SVGID_15_" gradientUnits="userSpaceOnUse" x1="323.1728" y1="721.3033" x2="412.2675" y2="641.7545" gradientTransform="matrix(0.8857 0.4643 -0.4643 0.8857 108.7675 -538.7418)">
	<stop  offset="6.179780e-02" style="stop-color:#BE5317"/>
	<stop  offset="0.2363" style="stop-color:#CB6F3A"/>
	<stop  offset="0.6154" style="stop-color:#E5B391"/>
	<stop  offset="0.8779" style="stop-color:#F6E4D7"/>
	<stop  offset="1" style="stop-color:#FFFFFF"/>
</linearGradient>
<path opacity="0.63" fill="url(#SVGID_15_)" d="M234.8,277.5l9.3-21.8l-65.3-73.5L79.7,174l-24.2,35.1
	C55.4,209.1,157.1,214.5,234.8,277.5z"/>
<radialGradient id="SVGID_16_" cx="1269.6028" cy="-158.4331" r="871.8804" gradientUnits="userSpaceOnUse">
	<stop  offset="0" style="stop-color:#2495C6"/>
	<stop  offset="2.944687e-02" style="stop-color:#2391C2"/>
	<stop  offset="0.2459" style="stop-color:#1C76AD"/>
	<stop  offset="0.4137" style="stop-color:#1866A1"/>
	<stop  offset="0.5112" style="stop-color:#16619D"/>
	<stop  offset="1" style="stop-color:#1C2371"/>
</radialGradient>
<path fill="url(#SVGID_16_)" d="M545.9,192.7c6.3,5.9,9.4,13.3,9.4,22.2c0,7.9-3,15-9.1,21.1c-5.5,5.9-12.7,8.9-21.3,8.9h-51
	c-3.1,0-5.7-1-7.6-2.9c-1.9-1.9-2.9-4.6-2.9-7.9c0-3.1,1-5.7,2.9-7.6c1.9-1.9,4.5-2.9,7.6-2.9h51c1.1,0,2.3-0.3,3.5-1
	c1.2-0.6,2.4-1.2,3.5-1.8c0.7-0.9,1.2-1.9,1.4-2.9c0.2-1,0.3-2,0.3-2.9c0-2-0.7-4.2-2.2-6.6c-9.1-7.8-18.2-15.7-27.4-23.7
	c-9.2-8-18.3-16-27.2-24c-6.3-6.1-9.4-13.5-9.4-22.2c0-4.1,0.8-7.9,2.5-11.6c1.7-3.7,3.8-6.9,6.4-9.7c5.5-5.9,12.7-8.9,21.6-8.9H542
	c3.1,0,5.8,1,7.9,2.9c2.1,1.9,3.2,4.5,3.2,7.6c0,3.5-1.1,6.2-3.2,8.2c-2.1,1.9-4.8,2.9-7.9,2.9h-44.3c-2.6,0-4.7,0.8-6.4,2.5
	c-1.5,1.9-2.2,3.9-2.2,6.1c0,3,0.6,4.9,1.7,5.8c0.2,0.2,4.9,4.3,14.1,12.3C514.1,164.5,527.8,176.6,545.9,192.7z M620.2,108.4
	c15,0,27.8,5.4,38.5,16.1c5,5,8.9,10.8,11.6,17.3c2.8,6.6,4.2,13.4,4.2,20.6v12.7c0,3.1-1.1,5.8-3.2,7.9c-2.1,2.1-4.8,3.2-7.9,3.2
	h-75.9v4.4c0,4.4,0.9,8.6,2.6,12.6c1.8,4,4.1,7.4,7.1,10.4c3,3,6.4,5.3,10.4,7.1c4,1.8,8.2,2.6,12.6,2.6h28.5c3.1,0,5.7,1,7.6,2.9
	c1.9,1.9,2.9,4.5,2.9,7.6c0,3.3-1,6-2.9,7.9c-1.9,1.9-4.5,2.9-7.6,2.9h-28.5c-7.6,0-14.6-1.4-21.2-4.2c-6.6-2.8-12.3-6.6-17.2-11.5
	c-4.9-4.9-8.8-10.6-11.6-17.2c-2.9-6.6-4.3-13.6-4.3-21.2v-28.3c0-7.4,1.3-14.3,4-20.8c2.7-6.5,6.7-12.3,12.1-17.5v0.3
	c5.2-5.4,11-9.4,17.6-12.1C606.1,109.8,613,108.4,620.2,108.4z M652.6,162.5c0-4.2-0.8-8.4-2.5-12.3c-1.7-4-4.1-7.5-7.2-10.7
	c-6.1-6.3-13.7-9.4-22.7-9.4c-9.1,0-16.7,3.1-23,9.4c-3.1,3.1-5.5,6.7-7.2,10.7c-1.7,4-2.5,8.1-2.5,12.3v2.2h65.1V162.5z
	 M823.6,108.4c6.1,0,11.9,1.2,17.5,3.6c5.5,2.4,10.4,5.6,14.5,9.7c4.2,4.1,7.5,8.9,10,14.4c2.5,5.5,3.7,11.5,3.7,17.7v80.1
	c0,3.3-1.1,6-3.2,7.9c-2.1,1.9-4.8,2.9-7.9,2.9c-3.1,0-5.7-1-7.8-2.9c-2-1.9-3-4.6-3-7.9v-80.1c0-3.3-0.6-6.4-1.9-9.3
	c-1.3-2.9-3-5.4-5.1-7.5c-2.1-2.1-4.6-3.8-7.5-5.1c-2.9-1.3-6-1.9-9.3-1.9H813c-3.3,0-6.4,0.7-9.3,1.9c-2.9,1.3-5.4,3-7.5,5.1
	c-2.1,2.1-3.8,4.6-5,7.5c-1.2,2.9-1.8,6-1.8,9.3v80.1c0,3.3-1.2,6-3.5,7.9c-2.3,1.9-4.8,2.9-7.3,2.9c-3.1,0-5.8-1-7.9-2.9
	c-2.1-1.9-3.2-4.6-3.2-7.9v-80.1c0-3.3-0.7-6.4-1.9-9.3c-1.3-2.9-3-5.4-5.1-7.5c-2.1-2.1-4.6-3.8-7.5-5.1c-2.9-1.3-6-1.9-9.3-1.9
	H733c-6.5,0-11.9,2.3-16.3,6.8c-4.4,4.5-6.8,10-7.2,16.5v80.6c0,3.3-1.1,6-3.2,7.9c-2.1,1.9-4.8,2.9-7.9,2.9c-3.1,0-5.7-1-7.6-2.9
	c-1.9-1.9-2.9-4.6-2.9-7.9V119.2c0-3.3,1-6,2.9-7.9c1.9-1.9,4.5-2.9,7.6-2.9c5.2,0,8.7,2.4,10.5,7.2c7-4.8,15.1-7.2,24.1-7.2h10.8
	c7,0,13.5,1.5,19.5,4.4c6,3,11.1,6.8,15.4,11.6c4.2-4.8,9.3-8.7,15.1-11.6c5.8-3,12.2-4.4,19.3-4.4H823.6z M952.1,108.4
	c4.2,0,8.5,0.8,12.7,2.5c4.2,1.7,7.9,4.1,11.1,7.2c6.5,6.8,9.7,14.9,9.7,24.1v91.7c0,3.3-1,6-2.9,7.9c-1.9,1.9-4.5,2.9-7.6,2.9
	c-5.4,0-9-2.1-10.8-6.4c-7,4.2-15,6.4-23.8,6.4h-12.7c-6.3,0-12.2-1.2-17.7-3.5c-5.5-2.3-10.3-5.5-14.4-9.6
	c-4.1-4.1-7.3-8.9-9.7-14.4c-2.4-5.5-3.6-11.5-3.6-17.7c0-6.3,1.1-12.1,3.3-17.5c2.2-5.4,5.4-10.2,9.7-14.4
	c4.2-4.2,9.1-7.5,14.7-9.8c5.5-2.3,11.5-3.5,17.7-3.5H956c2.6,0,4.6-0.7,6.1-2.2h-0.3c1.3-1.3,1.9-3.4,1.9-6.4v-3.6
	c0-3.9-1.1-6.8-3.3-8.9c-2-2.2-4.8-3.3-8.3-3.3h-49.3c-3.1,0-5.8-1-7.9-3c-2.1-2-3.2-4.6-3.2-7.8c0-3.3,1.1-6,3.2-7.9
	c2.1-1.9,4.8-2.9,7.9-2.9H952.1z M956.9,216.5c4.6-4.4,6.9-10.1,6.9-16.9v-24.1c-1.1,0.4-2.3,0.6-3.6,0.7c-1.3,0.1-2.7,0.1-4.2,0.1
	h-28.3c-6.6,0-12.2,2.2-16.8,6.6c-4.5,4.4-6.8,10-6.8,16.6c0,3.3,0.6,6.4,1.8,9.3c1.2,2.9,2.9,5.4,5,7.5c2.1,2.1,4.6,3.8,7.5,5.1
	c2.9,1.3,6,1.9,9.3,1.9h12.7c3.1,0,6.1-0.6,9-1.8C952.4,220.4,954.8,218.7,956.9,216.5z M1070.5,108.4c6.3,0,12.2,1.2,17.7,3.6
	c5.5,2.4,10.4,5.6,14.5,9.7c4.2,4.1,7.4,8.9,9.8,14.4c2.4,5.5,3.6,11.5,3.6,17.7v80.1c0,3.3-1.1,6-3.3,7.9c-2.2,1.9-4.6,2.9-7.2,2.9
	c-3.3,0-6.1-1-8.2-2.9c-2.1-1.9-3.2-4.6-3.2-7.9v-80.1c0-3.3-0.6-6.4-1.9-9.3c-1.3-2.9-3-5.4-5.1-7.5c-2.1-2.1-4.6-3.8-7.5-5.1
	c-2.9-1.3-6-1.9-9.3-1.9h-17.2c-6.5,0-12,2.3-16.5,6.8c-4.5,4.5-7,10-7.3,16.5v80.6c0,3.3-1,6-3,7.9c-2,1.9-4.6,2.9-7.8,2.9
	s-5.8-1-7.9-2.9c-2.1-1.9-3.2-4.6-3.2-7.9V119.2c0-3.3,1.1-6,3.2-7.9c2.1-1.9,4.8-2.9,7.9-2.9c5.4,0,8.8,2.3,10.3,6.9
	c7.2-4.6,15.3-6.9,24.4-6.9H1070.5z M1201.8,223.4c2.8,0,5.3,1,7.5,2.9c2.2,1.9,3.3,4.5,3.3,7.6c0,3.3-1.1,6-3.3,7.9
	c-2.2,1.9-4.7,2.9-7.5,2.9h-12.2c-7.6,0-14.7-1.4-21.3-4.2c-6.6-2.8-12.4-6.6-17.3-11.5c-4.9-4.9-8.8-10.6-11.6-17.2
	c-2.9-6.6-4.3-13.6-4.3-21.2V50.2c0-3.3,1.1-6,3.2-7.9c2.1-1.9,4.8-2.9,7.9-2.9c2.8,0,5.3,1,7.5,2.9c2.2,1.9,3.3,4.6,3.3,7.9v58.2
	h35.7c3.1,0,5.7,1,7.8,2.9c2,1.9,3,4.6,3,7.9c0,3.1-1,5.7-3,7.8c-2,2-4.6,3-7.8,3H1157v60.7c0,4.4,0.8,8.6,2.5,12.6
	c1.7,4,4,7.4,6.9,10.4c3,3,6.4,5.3,10.4,7.1c4,1.8,8.3,2.6,12.9,2.6H1201.8z M1239,86.3c-3.1,0-5.7-1.1-7.6-3.2
	c-1.9-2.1-2.9-4.8-2.9-7.9c0-3.3,1-6,2.9-7.9c1.9-1.9,4.5-2.9,7.6-2.9c3.1,0,5.8,1,7.9,2.9c2.1,1.9,3.2,4.6,3.2,7.9
	c0,3.1-1.1,5.8-3.2,7.9C1244.7,85.3,1242.1,86.3,1239,86.3z M1250.1,233.7c0,3.3-1.1,6-3.2,7.9c-2.1,1.9-4.8,2.9-7.9,2.9
	c-7,0-10.5-3.6-10.5-10.8V119.2c0-3.3,1-6,2.9-7.9c1.9-1.9,4.5-2.9,7.6-2.9c3.1,0,5.8,1,7.9,2.9c2.1,1.9,3.2,4.6,3.2,7.9V233.7z
	 M1324.6,130c-4.4,0-8.6,0.9-12.6,2.6c-4,1.8-7.4,4.1-10.3,6.9c-2.9,2.9-5.2,6.3-6.9,10.2c-1.8,4-2.6,8.2-2.6,12.6v28.3
	c0,4.4,0.9,8.6,2.6,12.6c1.8,4,4.1,7.4,6.9,10.4c2.9,3,6.3,5.3,10.3,7.1c4,1.8,8.2,2.6,12.6,2.6h23.6c3.1,0,5.7,1,7.8,2.9
	c2,1.9,3,4.5,3,7.6c0,3.3-1,6-3,7.9c-2,1.9-4.6,2.9-7.8,2.9h-23.6c-7.6,0-14.7-1.4-21.3-4.2c-6.6-2.8-12.4-6.6-17.3-11.5
	c-4.9-4.9-8.7-10.6-11.5-17.2c-2.8-6.6-4.2-13.6-4.2-21.2v-28.3c0-7.4,1.4-14.4,4.2-20.9c2.8-6.6,6.6-12.3,11.5-17.2
	c4.9-4.9,10.7-8.8,17.3-11.6c6.7-2.9,13.8-4.3,21.3-4.3h23.6c3.1,0,5.7,1,7.8,2.9c2,1.9,3,4.6,3,7.9c0,3.1-1,5.7-3,7.8
	c-2,2-4.6,3-7.8,3H1324.6z"/>
<linearGradient id="SVGID_17_" gradientUnits="userSpaceOnUse" x1="-18.9357" y1="-49.6254" x2="91.7167" y2="-160.2779" gradientTransform="matrix(0.9545 -0.298 0.298 0.9545 23.3799 237.7898)">
	<stop  offset="0" style="stop-color:#E9E9EA"/>
	<stop  offset="1" style="stop-color:#999B9E"/>
</linearGradient>
<polygon fill="url(#SVGID_17_)" points="11.6,86.1 55,142.8 39.6,147.2 20.4,127 12.3,111.7 "/>
<radialGradient id="SVGID_18_" cx="1762.6157" cy="-102.2804" r="598.7331" gradientUnits="userSpaceOnUse">
	<stop  offset="0" style="stop-color:#F47D20"/>
	<stop  offset="0.3047" style="stop-color:#E56D1F"/>
	<stop  offset="0.6074" style="stop-color:#DC641E"/>
	<stop  offset="1" style="stop-color:#B1411A"/>
</radialGradient>
<path fill="url(#SVGID_18_)" d="M1434,108.4c7.2,0,14.3,1.4,21.2,4.2c6.9,2.8,13,6.8,18.1,12.2c5.5,5.2,9.7,11.2,12.3,18
	c2.7,6.8,4,13.9,4,21.3v25.2c0,7.4-1.3,14.5-4,21.3c-2.7,6.8-6.8,12.9-12.3,18.3v-0.3c-5.2,5-11.2,8.9-18,11.8
	c-6.8,2.9-13.9,4.3-21.3,4.3h-31.3l-5,0.3c-1.1,0-2.5-0.3-4.2-1c-1.7-0.6-3-1.4-3.9-2.4c-1.9-2.4-2.8-4.9-2.8-7.5V50
	c0-3.3,1-6,2.9-7.9c1.9-1.9,4.6-2.9,7.9-2.9s6,1,7.9,2.9c1.9,1.9,2.9,4.6,2.9,7.9v58.5H1434z M1467.8,164.1c0-9.6-3.2-17.7-9.7-24.4
	c-3.1-3.1-6.7-5.5-10.8-7.2c-4.1-1.7-8.5-2.5-13.3-2.5h-25.5v93.4h25.5c9.2,0,17.2-3.4,23.8-10.3c3.3-3.1,5.8-6.8,7.5-10.9
	c1.7-4.2,2.5-8.5,2.5-12.9V164.1z M1519.7,86.3c-3.1,0-5.7-1.1-7.6-3.2c-1.9-2.1-2.9-4.8-2.9-7.9c0-3.3,1-6,2.9-7.9
	c1.9-1.9,4.5-2.9,7.6-2.9c3.1,0,5.8,1,7.9,2.9c2.1,1.9,3.2,4.6,3.2,7.9c0,3.1-1.1,5.8-3.2,7.9C1525.4,85.3,1522.8,86.3,1519.7,86.3z
	 M1530.8,233.7c0,3.3-1.1,6-3.2,7.9c-2.1,1.9-4.8,2.9-7.9,2.9c-7,0-10.5-3.6-10.5-10.8V119.2c0-3.3,1-6,2.9-7.9
	c1.9-1.9,4.5-2.9,7.6-2.9c3.1,0,5.8,1,7.9,2.9c2.1,1.9,3.2,4.6,3.2,7.9V233.7z M1619.4,223.4c2.8,0,5.3,1,7.5,2.9
	c2.2,1.9,3.3,4.5,3.3,7.6c0,3.3-1.1,6-3.3,7.9c-2.2,1.9-4.7,2.9-7.5,2.9h-12.2c-7.6,0-14.7-1.4-21.3-4.2
	c-6.6-2.8-12.4-6.6-17.3-11.5c-4.9-4.9-8.8-10.6-11.6-17.2c-2.9-6.6-4.3-13.6-4.3-21.2V50.2c0-3.3,1.1-6,3.2-7.9
	c2.1-1.9,4.8-2.9,7.9-2.9c2.8,0,5.3,1,7.5,2.9c2.2,1.9,3.3,4.6,3.3,7.9v58.2h35.7c3.1,0,5.7,1,7.8,2.9c2,1.9,3,4.6,3,7.9
	c0,3.1-1,5.7-3,7.8c-2,2-4.6,3-7.8,3h-35.7v60.7c0,4.4,0.8,8.6,2.5,12.6c1.7,4,4,7.4,6.9,10.4c3,3,6.4,5.3,10.4,7.1
	c4,1.8,8.3,2.6,12.9,2.6H1619.4z M1709.8,192.7c6.3,5.9,9.4,13.3,9.4,22.2c0,7.9-3,15-9.1,21.1c-5.5,5.9-12.7,8.9-21.3,8.9h-76.1
	c-3.1,0-5.7-1-7.6-2.9c-1.9-1.9-2.9-4.6-2.9-7.9c0-3.1,1-5.7,2.9-7.6c1.9-1.9,4.5-2.9,7.6-2.9h76.1c1.1,0,2.3-0.3,3.5-1
	c1.2-0.6,2.4-1.2,3.5-1.8c0.7-0.9,1.2-1.9,1.4-2.9c0.2-1,0.3-2,0.3-2.9c0-2-0.7-4.2-2.2-6.6c-9.1-7.8-18.2-15.7-27.4-23.7
	c-9.2-8-18.3-16-27.2-24c-6.3-6.1-9.4-13.5-9.4-22.2c0-4.1,0.8-7.9,2.5-11.6c1.7-3.7,3.8-6.9,6.4-9.7c5.5-5.9,12.7-8.9,21.6-8.9
	h44.3c3.1,0,5.8,1,7.9,2.9c2.1,1.9,3.2,4.5,3.2,7.6c0,3.5-1.1,6.2-3.2,8.2c-2.1,1.9-4.8,2.9-7.9,2.9h-44.3c-2.6,0-4.7,0.8-6.4,2.5
	c-1.5,1.9-2.2,3.9-2.2,6.1c0,3,0.6,4.9,1.7,5.8c0.2,0.2,4.9,4.3,14.1,12.3C1678,164.5,1691.7,176.6,1709.8,192.7z"/>
<radialGradient id="SVGID_19_" cx="159.9815" cy="-100.7748" r="47.4038" gradientTransform="matrix(0.8124 -0.2537 0.2422 0.776 129.6206 204.6885)" gradientUnits="userSpaceOnUse">
	<stop  offset="0" style="stop-color:#9FDDF9"/>
	<stop  offset="1" style="stop-color:#0092C0"/>
</radialGradient>
<path fill="url(#SVGID_19_)" d="M273.6,81.3c-17.2-14.4-37.4-24.6-58.1-30.1L237,77.7L273.6,81.3z"/>
<linearGradient id="SVGID_20_" gradientUnits="userSpaceOnUse" x1="275.5847" y1="154.3197" x2="204.8322" y2="81.5196" gradientTransform="matrix(0.9545 -0.298 0.298 0.9545 23.3799 237.7898)">
	<stop  offset="0" style="stop-color:#E9E9EA"/>
	<stop  offset="1" style="stop-color:#999B9E"/>
</linearGradient>
<path fill="url(#SVGID_20_)" d="M268.7,305.4l-5.5,13.5c20.3-5.3,39.1-14.1,55.2-26.3c12.9-9.9,23.1-21.3,30.8-33.9l-26,11
	L268.7,305.4z"/>
<radialGradient id="SVGID_21_" cx="137.2984" cy="130.8758" r="68.6448" gradientTransform="matrix(-0.5218 -0.6301 0.6266 -0.4869 262.4877 421.6465)" gradientUnits="userSpaceOnUse">
	<stop  offset="0" style="stop-color:#9FDDF9"/>
	<stop  offset="1" style="stop-color:#0092C0"/>
</radialGradient>
<path fill="url(#SVGID_21_)" d="M267.2,308.9c13.3-3.5,25.5-9.2,36-17.2c8.4-6.4,15.1-13.9,20.1-22.1l-40,0.1L267.2,308.9z"/>
<linearGradient id="SVGID_22_" gradientUnits="userSpaceOnUse" x1="-18.175" y1="-59.1045" x2="42.5675" y2="-59.1045" gradientTransform="matrix(0.9545 -0.298 0.298 0.9545 23.3799 237.7898)">
	<stop  offset="0" style="stop-color:#999B9E"/>
	<stop  offset="1" style="stop-color:#E9E9EA"/>
</linearGradient>
<path fill="url(#SVGID_22_)" d="M55,142.8c0,0-28.8,41.6-43.4,60l1.5-18.1l16.6-32.9l7.8-2.9L55,142.8z"/>
<radialGradient id="SVGID_23_" cx="-77.897" cy="-99.8264" r="96.3532" gradientTransform="matrix(0.8463 -6.962775e-02 4.954046e-02 0.8042 113.0251 221.8377)" gradientUnits="userSpaceOnUse">
	<stop  offset="0" style="stop-color:#9FDDF9"/>
	<stop  offset="1" style="stop-color:#0092C0"/>
</radialGradient>
<path fill="url(#SVGID_23_)" d="M12.2,111.1c-10.2,22.4-8.8,48,0.5,73.7c9.3-11.6,27.5-38,27.5-38L12.2,111.1z"/>
<path fill="none" d="M911,216.3c2.1,2.1,4.6,3.8,7.5,5.1c2.9,1.3,6,1.9,9.3,1.9h12.7c3.1,0,6.1-0.6,9-1.8c2.9-1.2,5.3-2.9,7.3-5.1
	c4.6-4.4,6.9-10.1,6.9-16.9v-24.1c-1.1,0.4-2.3,0.6-3.6,0.7c-1.3,0.1-2.7,0.1-4.2,0.1h-28.3c-6.6,0-12.2,2.2-16.8,6.6
	c-4.5,4.4-6.8,10-6.8,16.6c0,3.3,0.6,6.4,1.8,9.3C907.2,211.7,908.9,214.2,911,216.3z"/>
</svg>
